<svg xmlns="http://www.w3.org/2000/svg" width="640" height="234" viewBox="0 0 640 234" fill="none" role="img" aria-labelledby="title desc">
<title id="title">Yiran Peng — Independent Researcher</title><desc id="desc">SNHuan. NLP, Foundation Models, AI Agents. A sparse signal matrix with a slow diagonal shimmer. Text remains still; reduced-motion preference shows static artwork.</desc>
<rect width="640" height="234" fill="#0d1117" />
<defs><g id="matrix"><circle cx="0" cy="0" r="1.25" opacity="0.149" /><circle cx="16" cy="0" r="1.25" opacity="0.218" /><circle cx="32" cy="0" r="1.25" opacity="0.271" /><circle cx="48" cy="0" r="1.25" opacity="0.315" /><circle cx="64" cy="0" r="1.25" opacity="0.352" /><circle cx="80" cy="0" r="1.25" opacity="0.384" /><circle cx="96" cy="0" r="1.25" opacity="0.412" /><circle cx="112" cy="0" r="1.25" opacity="0.435" /><circle cx="128" cy="0" r="1.25" opacity="0.455" /><circle cx="144" cy="0" r="1.25" opacity="0.470" /><circle cx="160" cy="0" r="1.25" opacity="0.483" /><circle cx="176" cy="0" r="1.25" opacity="0.491" /><circle cx="192" cy="0" r="1.25" opacity="0.496" /><circle cx="208" cy="0" r="1.25" opacity="0.498" /><circle cx="224" cy="0" r="1.25" opacity="0.496" /><circle cx="240" cy="0" r="1.25" opacity="0.491" /><circle cx="256" cy="0" r="1.25" opacity="0.483" /><circle cx="272" cy="0" r="1.25" opacity="0.470" /><circle cx="288" cy="0" r="1.25" opacity="0.455" /><circle cx="304" cy="0" r="1.25" opacity="0.435" /><circle cx="320" cy="0" r="1.25" opacity="0.412" /><circle cx="336" cy="0" r="1.25" opacity="0.384" /><circle cx="352" cy="0" r="1.25" opacity="0.352" /><circle cx="368" cy="0" r="1.25" opacity="0.315" /><circle cx="384" cy="0" r="1.25" opacity="0.271" /><circle cx="400" cy="0" r="1.25" opacity="0.218" /><circle cx="416" cy="0" r="1.25" opacity="0.149" /><circle cx="0" cy="16" r="1.25" opacity="0.214" /><circle cx="16" cy="16" r="1.25" opacity="0.312" /><circle cx="32" cy="16" r="1.25" opacity="0.388" /><circle cx="48" cy="16" r="1.25" opacity="0.450" /><circle cx="64" cy="16" r="1.25" opacity="0.504" /><circle cx="80" cy="16" r="1.25" opacity="0.550" /><circle cx="96" cy="16" r="1.25" opacity="0.589" /><circle cx="112" cy="16" r="1.25" opacity="0.623" /><circle cx="128" cy="16" r="1.25" opacity="0.651" /><circle cx="144" cy="16" r="1.25" opacity="0.673" /><circle cx="160" cy="16" r="1.25" opacity="0.691" /><circle cx="176" cy="16" r="1.25" opacity="0.703" /><circle cx="192" cy="16" r="1.25" opacity="0.711" /><circle cx="208" cy="16" r="1.25" opacity="0.713" /><circle cx="224" cy="16" r="1.25" opacity="0.711" /><circle cx="240" cy="16" r="1.25" opacity="0.703" /><circle cx="256" cy="16" r="1.25" opacity="0.691" /><circle cx="272" cy="16" r="1.25" opacity="0.673" /><circle cx="288" cy="16" r="1.25" opacity="0.651" /><circle cx="304" cy="16" r="1.25" opacity="0.623" /><circle cx="320" cy="16" r="1.25" opacity="0.589" /><circle cx="336" cy="16" r="1.25" opacity="0.550" /><circle cx="352" cy="16" r="1.25" opacity="0.504" /><circle cx="368" cy="16" r="1.25" opacity="0.450" /><circle cx="384" cy="16" r="1.25" opacity="0.388" /><circle cx="400" cy="16" r="1.25" opacity="0.312" /><circle cx="416" cy="16" r="1.25" opacity="0.214" /><circle cx="0" cy="32" r="1.25" opacity="0.257" /><circle cx="16" cy="32" r="1.25" opacity="0.375" /><circle cx="32" cy="32" r="1.25" opacity="0.466" /><circle cx="48" cy="32" r="1.25" opacity="0.542" /><circle cx="64" cy="32" r="1.25" opacity="0.606" /><circle cx="80" cy="32" r="1.25" opacity="0.661" /><circle cx="96" cy="32" r="1.25" opacity="0.708" /><circle cx="112" cy="32" r="1.25" opacity="0.749" /><circle cx="128" cy="32" r="1.25" opacity="0.782" /><circle cx="144" cy="32" r="1.25" opacity="0.809" /><circle cx="160" cy="32" r="1.25" opacity="0.830" /><circle cx="176" cy="32" r="1.25" opacity="0.845" /><circle cx="192" cy="32" r="1.25" opacity="0.854" /><circle cx="208" cy="32" r="1.25" opacity="0.857" /><circle cx="224" cy="32" r="1.25" opacity="0.854" /><circle cx="240" cy="32" r="1.25" opacity="0.845" /><circle cx="256" cy="32" r="1.25" opacity="0.830" /><circle cx="272" cy="32" r="1.25" opacity="0.809" /><circle cx="288" cy="32" r="1.25" opacity="0.782" /><circle cx="304" cy="32" r="1.25" opacity="0.749" /><circle cx="320" cy="32" r="1.25" opacity="0.708" /><circle cx="336" cy="32" r="1.25" opacity="0.661" /><circle cx="352" cy="32" r="1.25" opacity="0.606" /><circle cx="368" cy="32" r="1.25" opacity="0.542" /><circle cx="384" cy="32" r="1.25" opacity="0.466" /><circle cx="400" cy="32" r="1.25" opacity="0.375" /><circle cx="416" cy="32" r="1.25" opacity="0.257" /><circle cx="0" cy="48" r="1.25" opacity="0.285" /><circle cx="16" cy="48" r="1.25" opacity="0.415" /><circle cx="32" cy="48" r="1.25" opacity="0.516" /><circle cx="48" cy="48" r="1.25" opacity="0.600" /><circle cx="64" cy="48" r="1.25" opacity="0.671" /><circle cx="80" cy="48" r="1.25" opacity="0.732" /><circle cx="96" cy="48" r="1.25" opacity="0.784" /><circle cx="112" cy="48" r="1.25" opacity="0.829" /><circle cx="128" cy="48" r="1.25" opacity="0.866" /><circle cx="144" cy="48" r="1.25" opacity="0.896" /><circle cx="160" cy="48" r="1.25" opacity="0.920" /><circle cx="176" cy="48" r="1.25" opacity="0.936" /><circle cx="192" cy="48" r="1.25" opacity="0.946" /><circle cx="208" cy="48" r="1.25" opacity="0.949" /><circle cx="224" cy="48" r="1.25" opacity="0.946" /><circle cx="240" cy="48" r="1.25" opacity="0.936" /><circle cx="256" cy="48" r="1.25" opacity="0.920" /><circle cx="272" cy="48" r="1.25" opacity="0.896" /><circle cx="288" cy="48" r="1.25" opacity="0.866" /><circle cx="304" cy="48" r="1.25" opacity="0.829" /><circle cx="320" cy="48" r="1.25" opacity="0.784" /><circle cx="336" cy="48" r="1.25" opacity="0.732" /><circle cx="352" cy="48" r="1.25" opacity="0.671" /><circle cx="368" cy="48" r="1.25" opacity="0.600" /><circle cx="384" cy="48" r="1.25" opacity="0.516" /><circle cx="400" cy="48" r="1.25" opacity="0.415" /><circle cx="416" cy="48" r="1.25" opacity="0.285" /><circle cx="0" cy="64" r="1.25" opacity="0.298" /><circle cx="16" cy="64" r="1.25" opacity="0.435" /><circle cx="32" cy="64" r="1.25" opacity="0.541" /><circle cx="48" cy="64" r="1.25" opacity="0.628" /><circle cx="64" cy="64" r="1.25" opacity="0.703" /><circle cx="80" cy="64" r="1.25" opacity="0.767" /><circle cx="96" cy="64" r="1.25" opacity="0.822" /><circle cx="112" cy="64" r="1.25" opacity="0.868" /><circle cx="128" cy="64" r="1.25" opacity="0.907" /><circle cx="144" cy="64" r="1.25" opacity="0.939" /><circle cx="160" cy="64" r="1.25" opacity="0.963" /><circle cx="176" cy="64" r="1.25" opacity="0.981" /><circle cx="192" cy="64" r="1.25" opacity="0.991" /><circle cx="208" cy="64" r="1.25" opacity="0.994" /><circle cx="224" cy="64" r="1.25" opacity="0.991" /><circle cx="240" cy="64" r="1.25" opacity="0.981" /><circle cx="256" cy="64" r="1.25" opacity="0.963" /><circle cx="272" cy="64" r="1.25" opacity="0.939" /><circle cx="288" cy="64" r="1.25" opacity="0.907" /><circle cx="304" cy="64" r="1.25" opacity="0.868" /><circle cx="320" cy="64" r="1.25" opacity="0.822" /><circle cx="336" cy="64" r="1.25" opacity="0.767" /><circle cx="352" cy="64" r="1.25" opacity="0.703" /><circle cx="368" cy="64" r="1.25" opacity="0.628" /><circle cx="384" cy="64" r="1.25" opacity="0.541" /><circle cx="400" cy="64" r="1.25" opacity="0.435" /><circle cx="416" cy="64" r="1.25" opacity="0.298" /><circle cx="0" cy="80" r="1.25" opacity="0.298" /><circle cx="16" cy="80" r="1.25" opacity="0.435" /><circle cx="32" cy="80" r="1.25" opacity="0.541" /><circle cx="48" cy="80" r="1.25" opacity="0.628" /><circle cx="64" cy="80" r="1.25" opacity="0.703" /><circle cx="80" cy="80" r="1.25" opacity="0.767" /><circle cx="96" cy="80" r="1.25" opacity="0.822" /><circle cx="112" cy="80" r="1.25" opacity="0.868" /><circle cx="128" cy="80" r="1.25" opacity="0.907" /><circle cx="144" cy="80" r="1.25" opacity="0.939" /><circle cx="160" cy="80" r="1.25" opacity="0.963" /><circle cx="176" cy="80" r="1.25" opacity="0.981" /><circle cx="192" cy="80" r="1.25" opacity="0.991" /><circle cx="208" cy="80" r="1.25" opacity="0.994" /><circle cx="224" cy="80" r="1.25" opacity="0.991" /><circle cx="240" cy="80" r="1.25" opacity="0.981" /><circle cx="256" cy="80" r="1.25" opacity="0.963" /><circle cx="272" cy="80" r="1.25" opacity="0.939" /><circle cx="288" cy="80" r="1.25" opacity="0.907" /><circle cx="304" cy="80" r="1.25" opacity="0.868" /><circle cx="320" cy="80" r="1.25" opacity="0.822" /><circle cx="336" cy="80" r="1.25" opacity="0.767" /><circle cx="352" cy="80" r="1.25" opacity="0.703" /><circle cx="368" cy="80" r="1.25" opacity="0.628" /><circle cx="384" cy="80" r="1.25" opacity="0.541" /><circle cx="400" cy="80" r="1.25" opacity="0.435" /><circle cx="416" cy="80" r="1.25" opacity="0.298" /><circle cx="0" cy="96" r="1.25" opacity="0.285" /><circle cx="16" cy="96" r="1.25" opacity="0.415" /><circle cx="32" cy="96" r="1.25" opacity="0.516" /><circle cx="48" cy="96" r="1.25" opacity="0.600" /><circle cx="64" cy="96" r="1.25" opacity="0.671" /><circle cx="80" cy="96" r="1.25" opacity="0.732" /><circle cx="96" cy="96" r="1.25" opacity="0.784" /><circle cx="112" cy="96" r="1.25" opacity="0.829" /><circle cx="128" cy="96" r="1.25" opacity="0.866" /><circle cx="144" cy="96" r="1.25" opacity="0.896" /><circle cx="160" cy="96" r="1.25" opacity="0.920" /><circle cx="176" cy="96" r="1.25" opacity="0.936" /><circle cx="192" cy="96" r="1.25" opacity="0.946" /><circle cx="208" cy="96" r="1.25" opacity="0.949" /><circle cx="224" cy="96" r="1.25" opacity="0.946" /><circle cx="240" cy="96" r="1.25" opacity="0.936" /><circle cx="256" cy="96" r="1.25" opacity="0.920" /><circle cx="272" cy="96" r="1.25" opacity="0.896" /><circle cx="288" cy="96" r="1.25" opacity="0.866" /><circle cx="304" cy="96" r="1.25" opacity="0.829" /><circle cx="320" cy="96" r="1.25" opacity="0.784" /><circle cx="336" cy="96" r="1.25" opacity="0.732" /><circle cx="352" cy="96" r="1.25" opacity="0.671" /><circle cx="368" cy="96" r="1.25" opacity="0.600" /><circle cx="384" cy="96" r="1.25" opacity="0.516" /><circle cx="400" cy="96" r="1.25" opacity="0.415" /><circle cx="416" cy="96" r="1.25" opacity="0.285" /><circle cx="0" cy="112" r="1.25" opacity="0.257" /><circle cx="16" cy="112" r="1.25" opacity="0.375" /><circle cx="32" cy="112" r="1.25" opacity="0.466" /><circle cx="48" cy="112" r="1.25" opacity="0.542" /><circle cx="64" cy="112" r="1.25" opacity="0.606" /><circle cx="80" cy="112" r="1.25" opacity="0.661" /><circle cx="96" cy="112" r="1.25" opacity="0.708" /><circle cx="112" cy="112" r="1.25" opacity="0.749" /><circle cx="128" cy="112" r="1.25" opacity="0.782" /><circle cx="144" cy="112" r="1.25" opacity="0.809" /><circle cx="160" cy="112" r="1.25" opacity="0.830" /><circle cx="176" cy="112" r="1.25" opacity="0.845" /><circle cx="192" cy="112" r="1.25" opacity="0.854" /><circle cx="208" cy="112" r="1.25" opacity="0.857" /><circle cx="224" cy="112" r="1.25" opacity="0.854" /><circle cx="240" cy="112" r="1.25" opacity="0.845" /><circle cx="256" cy="112" r="1.25" opacity="0.830" /><circle cx="272" cy="112" r="1.25" opacity="0.809" /><circle cx="288" cy="112" r="1.25" opacity="0.782" /><circle cx="304" cy="112" r="1.25" opacity="0.749" /><circle cx="320" cy="112" r="1.25" opacity="0.708" /><circle cx="336" cy="112" r="1.25" opacity="0.661" /><circle cx="352" cy="112" r="1.25" opacity="0.606" /><circle cx="368" cy="112" r="1.25" opacity="0.542" /><circle cx="384" cy="112" r="1.25" opacity="0.466" /><circle cx="400" cy="112" r="1.25" opacity="0.375" /><circle cx="416" cy="112" r="1.25" opacity="0.257" /><circle cx="0" cy="128" r="1.25" opacity="0.214" /><circle cx="16" cy="128" r="1.25" opacity="0.312" /><circle cx="32" cy="128" r="1.25" opacity="0.388" /><circle cx="48" cy="128" r="1.25" opacity="0.450" /><circle cx="64" cy="128" r="1.25" opacity="0.504" /><circle cx="80" cy="128" r="1.25" opacity="0.550" /><circle cx="96" cy="128" r="1.25" opacity="0.589" /><circle cx="112" cy="128" r="1.25" opacity="0.623" /><circle cx="128" cy="128" r="1.25" opacity="0.651" /><circle cx="144" cy="128" r="1.25" opacity="0.673" /><circle cx="160" cy="128" r="1.25" opacity="0.691" /><circle cx="176" cy="128" r="1.25" opacity="0.703" /><circle cx="192" cy="128" r="1.25" opacity="0.711" /><circle cx="208" cy="128" r="1.25" opacity="0.713" /><circle cx="224" cy="128" r="1.25" opacity="0.711" /><circle cx="240" cy="128" r="1.25" opacity="0.703" /><circle cx="256" cy="128" r="1.25" opacity="0.691" /><circle cx="272" cy="128" r="1.25" opacity="0.673" /><circle cx="288" cy="128" r="1.25" opacity="0.651" /><circle cx="304" cy="128" r="1.25" opacity="0.623" /><circle cx="320" cy="128" r="1.25" opacity="0.589" /><circle cx="336" cy="128" r="1.25" opacity="0.550" /><circle cx="352" cy="128" r="1.25" opacity="0.504" /><circle cx="368" cy="128" r="1.25" opacity="0.450" /><circle cx="384" cy="128" r="1.25" opacity="0.388" /><circle cx="400" cy="128" r="1.25" opacity="0.312" /><circle cx="416" cy="128" r="1.25" opacity="0.214" /><circle cx="0" cy="144" r="1.25" opacity="0.149" /><circle cx="16" cy="144" r="1.25" opacity="0.218" /><circle cx="32" cy="144" r="1.25" opacity="0.271" /><circle cx="48" cy="144" r="1.25" opacity="0.315" /><circle cx="64" cy="144" r="1.25" opacity="0.352" /><circle cx="80" cy="144" r="1.25" opacity="0.384" /><circle cx="96" cy="144" r="1.25" opacity="0.412" /><circle cx="112" cy="144" r="1.25" opacity="0.435" /><circle cx="128" cy="144" r="1.25" opacity="0.455" /><circle cx="144" cy="144" r="1.25" opacity="0.470" /><circle cx="160" cy="144" r="1.25" opacity="0.483" /><circle cx="176" cy="144" r="1.25" opacity="0.491" /><circle cx="192" cy="144" r="1.25" opacity="0.496" /><circle cx="208" cy="144" r="1.25" opacity="0.498" /><circle cx="224" cy="144" r="1.25" opacity="0.496" /><circle cx="240" cy="144" r="1.25" opacity="0.491" /><circle cx="256" cy="144" r="1.25" opacity="0.483" /><circle cx="272" cy="144" r="1.25" opacity="0.470" /><circle cx="288" cy="144" r="1.25" opacity="0.455" /><circle cx="304" cy="144" r="1.25" opacity="0.435" /><circle cx="320" cy="144" r="1.25" opacity="0.412" /><circle cx="336" cy="144" r="1.25" opacity="0.384" /><circle cx="352" cy="144" r="1.25" opacity="0.352" /><circle cx="368" cy="144" r="1.25" opacity="0.315" /><circle cx="384" cy="144" r="1.25" opacity="0.271" /><circle cx="400" cy="144" r="1.25" opacity="0.218" /><circle cx="416" cy="144" r="1.25" opacity="0.149" /></g><linearGradient id="signal" gradientUnits="userSpaceOnUse" x1="-90" y1="0" x2="90" y2="-50"><stop offset="0" stop-color="#c4e3ff" stop-opacity="0" /><stop offset=".35" stop-color="#c4e3ff" stop-opacity=".12" /><stop offset=".5" stop-color="#c4e3ff" stop-opacity="1" /><stop offset=".65" stop-color="#c4e3ff" stop-opacity=".12" /><stop offset="1" stop-color="#c4e3ff" stop-opacity="0" /><animateTransform attributeName="gradientTransform" type="translate" values="-180 0;650 0;650 0" keyTimes="0;.88;1" dur="12s" repeatCount="indefinite" /></linearGradient></defs><style>.still{display:none}@media(prefers-reduced-motion:reduce){.animated{display:none}.still{display:inline}}</style><g class="still" transform="translate(412 66) scale(.44)"><use href="#matrix" fill="#83a9d4" opacity=".30" /><path d="M-17 26V-14H23M393 158H433V118" stroke="#33506d" stroke-width="1" opacity=".7" /><g><rect x="92" y="28" width="8" height="8" rx="1" fill="none" stroke="#83a9d4" stroke-width="1" opacity=".6" /><circle cx="96" cy="32" r="1.4" fill="#c4e3ff" opacity=".65" /></g><g><rect x="220" y="92" width="8" height="8" rx="1" fill="none" stroke="#83a9d4" stroke-width="1" opacity=".6" /><circle cx="224" cy="96" r="1.4" fill="#c4e3ff" opacity=".65" /></g><g><rect x="332" y="44" width="8" height="8" rx="1" fill="none" stroke="#83a9d4" stroke-width="1" opacity=".6" /><circle cx="336" cy="48" r="1.4" fill="#c4e3ff" opacity=".65" /></g><circle cx="176" cy="0" r="1.5" fill="#c4e3ff" opacity=".55" /><circle cx="176" cy="16" r="1.5" fill="#c4e3ff" opacity=".55" /><circle cx="192" cy="32" r="1.5" fill="#c4e3ff" opacity=".55" /><circle cx="192" cy="48" r="1.5" fill="#c4e3ff" opacity=".55" /><circle cx="208" cy="64" r="1.5" fill="#c4e3ff" opacity=".55" /><circle cx="208" cy="80" r="1.5" fill="#c4e3ff" opacity=".55" /><circle cx="224" cy="96" r="1.5" fill="#c4e3ff" opacity=".55" /><circle cx="224" cy="112" r="1.5" fill="#c4e3ff" opacity=".55" /><circle cx="240" cy="128" r="1.5" fill="#c4e3ff" opacity=".55" /><circle cx="240" cy="144" r="1.5" fill="#c4e3ff" opacity=".55" /></g><g class="animated" transform="translate(412 66) scale(.44)"><use href="#matrix" fill="#83a9d4" opacity=".30" /><path d="M-17 26V-14H23M393 158H433V118" stroke="#33506d" stroke-width="1" opacity=".7" /><g><rect x="92" y="28" width="8" height="8" rx="1" fill="none" stroke="#83a9d4" stroke-width="1" opacity=".6" /><circle cx="96" cy="32" r="1.4" fill="#c4e3ff" opacity=".65" /><animate attributeName="opacity" values=".5;1;.5" dur="6s" begin="-5s" repeatCount="indefinite" /></g><g><rect x="220" y="92" width="8" height="8" rx="1" fill="none" stroke="#83a9d4" stroke-width="1" opacity=".6" /><circle cx="224" cy="96" r="1.4" fill="#c4e3ff" opacity=".65" /><animate attributeName="opacity" values=".5;1;.5" dur="6s" begin="-0s" repeatCount="indefinite" /></g><g><rect x="332" y="44" width="8" height="8" rx="1" fill="none" stroke="#83a9d4" stroke-width="1" opacity=".6" /><circle cx="336" cy="48" r="1.4" fill="#c4e3ff" opacity=".65" /><animate attributeName="opacity" values=".5;1;.5" dur="6s" begin="-0s" repeatCount="indefinite" /></g><use href="#matrix" fill="url(#signal)" /></g><g font-family="-apple-system, BlinkMacSystemFont, 'Segoe UI', Helvetica, Arial, sans-serif">
<text x="2" y="81" fill="#e6edf7" font-size="58" font-weight="650" letter-spacing="-1.8">Yiran Peng</text>
<text x="4" y="119" fill="#7385a1" font-size="24">@SNHuan</text>
<text x="4" y="154" fill="#adbed5" font-size="20">Independent Researcher</text>
<text x="4" y="200" fill="#adbed5" font-size="16" font-family="'SFMono-Regular', Consolas, 'Liberation Mono', monospace">NLP · Foundation Models · AI Agents</text>
</g><path d="M0 233H640" stroke="#293646" /></svg>
